<svg xmlns="http://www.w3.org/2000/svg" xmlns:xlink="http://www.w3.org/1999/xlink" width="351" height="81" viewBox="0 0 351 81"><defs><path d="M13.1 13.764h2.2v-2.02c0-1.01 0-2.422.6-3.23C16.5 7.504 17.5 7 19.2 7c2.7 0 3.8.303 3.8.303l-.5 3.23s-.8-.302-1.6-.302-1.6.31-1.6 1.12v2.53h3.3l-.2 3.23h-3.2V28h-4V17.096H13v-3.332h.1z" id="a"/><path d="M62.954 12.672c1.3 0 2.702.626 3.603 1.564 0-.417.3-.834.7-.834h.1c.6 0 .802.626.802.834v7.402c0 .52.5.73.8.417 1.1-1.147 2.5-6.36-.7-9.28-3.01-2.71-7.01-2.293-9.21-.73-2.3 1.565-3.71 5.318-2.4 8.76 1.5 3.752 6 4.795 8.6 3.752 1.3-.52 2 1.25.5 1.98-2.1.94-7.91.835-10.61-4.065-1.9-3.336-1.8-9.175 3.1-12.094 3.7-2.294 8.7-1.668 11.51 1.46 3.1 3.336 2.9 9.696-.1 12.094-1.3 1.043-3.41 0-3.41-1.564v-.52c-.9.937-2.2 1.46-3.605 1.46-2.7 0-5.204-2.503-5.204-5.422.5-2.712 2.9-5.214 5.504-5.214zm3.603 5.213c-.1-2.085-1.5-3.336-3.403-3.336h-.1c-2.102 0-3.203 1.66-3.203 3.64 0 2.19 1.31 3.54 3.21 3.54 2.1 0 3.41-1.46 3.41-3.34l.1-.52z" id="b"/><path d="M113.79 18.248c-.3-.298-.604-.398-1.007-.696-.302-.1-1.21-.298-1.31-.398 1.41-.795 2.217-1.49 2.217-3.578 0-2.484-2.016-3.578-4.434-3.578H102v16h7.054c2.922 0 5.946-1.49 5.946-4.67-.202-1.49-.403-2.185-1.21-3.08zm-7.86-3.975V13.18c1.512 0 3.628-.298 3.628 1.49 0 2.088-1.814 1.79-3.628 1.79v-2.187zm0 8.944v-4.075c2.116 0 4.636-.398 4.636 2.087 0 2.28-2.62 1.98-4.636 1.98z" id="c"/><path d="M153.48 10.16c1.326 0 2.4 1.002 2.4 2.24s-1.074 2.243-2.4 2.243c-1.325 0-2.4-1.003-2.4-2.242 0-1.22 1.075-2.24 2.4-2.24zm0 7.667c3.194 0 5.792-2.428 5.792-5.414 0-2.985-2.598-5.413-5.792-5.413s-5.792 2.428-5.792 5.413c0 2.986 2.598 5.414 5.792 5.414m2.36 4.435c1.18-.26 2.32-.694 3.366-1.3.795-.472 1.034-1.45.53-2.18-.504-.745-1.55-.968-2.333-.497-2.372 1.387-5.434 1.387-7.806 0-.796-.47-1.843-.248-2.333.496-.504.75-.265 1.73.53 2.18 1.047.61 2.187 1.06 3.367 1.31l-3.23 3.02c-.67.63-.67 1.63 0 2.24.33.31.77.46 1.21.46s.88-.15 1.21-.46l3.18-2.97 3.18 2.98c.68.63 1.74.63 2.4 0 .68-.63.68-1.62 0-2.24l-3.26-3.023" id="d"/><path d="M192.162 12.072c1.278 0 2.162-.916 2.162-2.036S193.538 8 192.162 8 190 8.814 190 10.036c0 1.12.884 2.036 2.162 2.036zm1.868 12.826v-11.3h-3.735V25h3.734zm1.867 0h3.636v-6.31c0-.408 0-.612.098-.917.3-.61.89-1.32 1.87-1.32 1.28 0 1.87 1.02 1.87 2.55V25H207v-6.72c0-3.46-1.867-5.19-4.128-5.19-1.966 0-2.85 1.017-3.34 1.933v-1.425h-3.736c.2 1.12.1 11.3.1 11.3z" id="e"/><path d="M240.976 17.5c0-1.1 2.625-1.5 2.625-4.3 0-1.6-.1-2.7-1.41-3.3 0-.4 2.32-.1 2.32-.9h-5.15s-5.25.1-5.25 4.4 4.45 3.8 4.45 3.8v1.1c0 .4.61.3.71 1.2-.3 0-6.26-.2-6.26 3.8 0 3.9 5.35 3.7 5.35 3.7s6.06.3 6.06-4.6c0-2.7-3.43-3.6-3.43-4.9zm-4.544-3.7c-.504-1.8.1-3.4 1.414-3.7 1.21-.3 2.727.8 3.13 2.6.504 1.8-.1 3.4-1.414 3.8-1.212.2-2.523-.9-3.13-2.7zm2.625 12.2c-2.12.1-3.837-.9-3.938-2.5-.11-1.5 1.51-2.9 3.63-3s3.83.9 3.94 2.5c.1 1.4-1.42 2.8-3.64 3zM254 12.7v1h-3.534v3.5h-1.01v-3.5h-3.534v-1h3.534V9.2h1.01v3.5H254z" id="f"/><path d="M299 10.715c-.88.285-1.76.572-2.347.857.88-.572 1.76-1.714 2.053-2.286-.88.572-2.053.857-2.64 1.143-.88-.86-2.053-1.43-3.227-1.43-2.35 0-4.7 2-4.7 4.57 0 .28 0 .85.29 1.14-3.82-.29-7.04-2-9.39-4.57-.59.57-.59 1.71-.59 2.28 0 1.71.88 2.85 2.05 3.71-.88 0-1.76-.29-2.348-.57 0 2.28 1.76 4 3.52 4.28-.59.284-.88.284-1.176.284-.29 0-.586 0-.88-.283.59 2 2.35 3.143 4.11 3.143-1.76 1.14-3.52 2-5.575 2H277c2.053 1.43 4.4 2 7.04 2 8.213 0 12.906-6.86 12.906-12.57v-1.71c.587-.57 1.467-1.428 2.054-2z" id="g"/><path d="M326.288 9h13.467c1.403 0 2.245 1.125 2.245 2.25v13.5c0 1.407-1.122 2.25-2.245 2.25h-13.467c-1.403 0-2.245-1.125-2.245-2.25V11.53c-.28-1.405.843-2.53 2.245-2.53zm10.663 2.25c-.56 0-.84.28-.84.843v1.968c0 .57.28.85.84.85h2.25c.56 0 .84-.28.84-.84v-2.25c0-.56-.28-.84-.84-.84h-2.24v.28zm3.09 5.625h-1.68c.28.563.28 1.125.28 1.688 0 2.812-2.52 5.624-5.61 5.624s-5.61-2.25-5.61-5.624c0-.563 0-1.125.28-1.688h-1.68v7.594c0 .56.28.84.84.84h12.63c.56 0 .84-.28.84-.85v-7.59h-.28zm-7.01-2.25c-2.24 0-3.64 1.687-3.64 3.374s1.687 3.37 3.65 3.37 3.647-1.69 3.647-3.38-1.683-3.38-3.647-3.38z" id="h"/></defs><use xlink:href="#a" fill="#fff"/><use xlink:href="#b" fill="#fff"/><use xlink:href="#c" fill="#fff"/><use xlink:href="#d" fill="#fff"/><use xlink:href="#e" fill="#fff"/><use xlink:href="#f" fill="#fff"/><use xlink:href="#g" fill="#fff"/><use xlink:href="#h" fill="#fff"/><use y="45" xlink:href="#a"/><use y="45" xlink:href="#b"/><use y="45" xlink:href="#c"/><use y="45" xlink:href="#d"/><use y="45" xlink:href="#e"/><use y="45" xlink:href="#f"/><use y="45" xlink:href="#g"/><use y="45" xlink:href="#h"/></svg>
